<?xml version="1.0" encoding="UTF-8" standalone="no"?><svg xmlns="http://www.w3.org/2000/svg" xmlns:xlink="http://www.w3.org/1999/xlink" contentScriptType="application/ecmascript" contentStyleType="text/css" height="151px" preserveAspectRatio="none" style="width:128px;height:151px;" version="1.1" viewBox="0 0 128 151" width="128px" zoomAndPan="magnify"><defs><filter height="300%" id="f1sv0akik16ejt" width="300%" x="-1" y="-1"><feGaussianBlur result="blurOut" stdDeviation="2.0"/><feColorMatrix in="blurOut" result="blurOut2" type="matrix" values="0 0 0 0 0 0 0 0 0 0 0 0 0 0 0 0 0 0 .4 0"/><feOffset dx="4.0" dy="4.0" in="blurOut2" result="blurOut3"/><feBlend in="SourceGraphic" in2="blurOut3" mode="normal"/></filter></defs><g><!--entity S1--><rect fill="#FEFECE" filter="url(#f1sv0akik16ejt)" height="36.2969" rx="35" ry="35" style="stroke: #000000; stroke-width: 1.5;" width="38" x="42" y="104"/><text fill="#000000" font-family="sans-serif" font-size="14" lengthAdjust="spacingAndGlyphs" textLength="18" x="52" y="126.9951">S1</text><!--entity S2--><rect fill="#FEFECE" filter="url(#f1sv0akik16ejt)" height="36.2969" rx="35" ry="35" style="stroke: #000000; stroke-width: 1.5;" width="38" x="6" y="8"/><text fill="#000000" font-family="sans-serif" font-size="14" lengthAdjust="spacingAndGlyphs" textLength="18" x="16" y="30.9951">S2</text><!--entity S3--><rect fill="#FEFECE" filter="url(#f1sv0akik16ejt)" height="36.2969" rx="35" ry="35" style="stroke: #000000; stroke-width: 1.5;" width="38" x="79" y="8"/><text fill="#000000" font-family="sans-serif" font-size="14" lengthAdjust="spacingAndGlyphs" textLength="18" x="89" y="30.9951">S3</text><!--link S2 to S1--><path d="M33.513,49.2283 C39.9174,65.9511 48.5654,88.532 54.4389,103.8683 " fill="none" id="S2-S1" style="stroke: #0000FF; stroke-width: 1.0;"/><polygon fill="#0000FF" points="31.603,44.241,31.0865,54.0763,33.3913,48.9103,38.5573,51.2151,31.603,44.241" style="stroke: #0000FF; stroke-width: 1.0;"/><!--link S2 to S3--><path d="M49.2304,26 C59.0309,26 68.8313,26 78.6317,26 " fill="none" id="S2-S3" style="stroke: #0000FF; stroke-width: 1.0;"/><polygon fill="#0000FF" points="44.1055,26,53.1055,30,49.1055,26,53.1055,22,44.1055,26" style="stroke: #0000FF; stroke-width: 1.0;"/><!--link S3 to S1--><path d="M91.2136,44.241 C85.1635,59.6116 76.274,82.1957 69.7026,98.8906 " fill="none" id="S3-S1" style="stroke: #A80036; stroke-width: 1.0;"/><polygon fill="#A80036" points="67.7433,103.8683,74.7619,96.9589,69.5747,99.2158,67.3178,94.0286,67.7433,103.8683" style="stroke: #A80036; stroke-width: 1.0;"/><!--
@startuml
storage S1
storage S2
storage S3

S2 <-[#blue]- S1
S2 <-[#blue] S3

S3 - -> S1
@enduml

PlantUML version 1.2019.07(Mon Jun 24 19:59:20 UTC 2019)
(GPL source distribution)
Java Runtime: Java(TM) SE Runtime Environment
JVM: Java HotSpot(TM) 64-Bit Server VM
Java Version: 1.7.0_25-b15
Operating System: Linux
Default Encoding: UTF-8
Language: en
Country: US
--></g></svg>