<?xml version="1.0" encoding="UTF-8" standalone="no"?><svg xmlns="http://www.w3.org/2000/svg" xmlns:xlink="http://www.w3.org/1999/xlink" contentScriptType="application/ecmascript" contentStyleType="text/css" height="697px" preserveAspectRatio="none" style="width:876px;height:697px;" version="1.1" viewBox="0 0 876 697" width="876px" zoomAndPan="magnify"><defs><filter height="300%" id="f1oxxxo0dk33wj" width="300%" x="-1" y="-1"><feGaussianBlur result="blurOut" stdDeviation="2.0"/><feColorMatrix in="blurOut" result="blurOut2" type="matrix" values="0 0 0 0 0 0 0 0 0 0 0 0 0 0 0 0 0 0 .4 0"/><feOffset dx="4.0" dy="4.0" in="blurOut2" result="blurOut3"/><feBlend in="SourceGraphic" in2="blurOut3" mode="normal"/></filter></defs><g><!--entity ISyncService--><ellipse cx="589" cy="37" fill="#FEFECE" filter="url(#f1oxxxo0dk33wj)" rx="8" ry="8" style="stroke: #A80036; stroke-width: 2.0;"/><text fill="#000000" font-family="sans-serif" font-size="14" lengthAdjust="spacingAndGlyphs" textLength="86" x="546" y="66.9951">ISyncService</text><!--entity ICheetahSyncService--><ellipse cx="589" cy="155" fill="#FEFECE" filter="url(#f1oxxxo0dk33wj)" rx="8" ry="8" style="stroke: #A80036; stroke-width: 2.0;"/><text fill="#000000" font-family="sans-serif" font-size="14" lengthAdjust="spacingAndGlyphs" textLength="145" x="516.5" y="184.9951">ICheetahSyncService</text><!--entity SyncService--><rect fill="#FEFECE" filter="url(#f1oxxxo0dk33wj)" height="36.2969" style="stroke: #A80036; stroke-width: 1.5;" width="103" x="537.5" y="244"/><rect fill="#FEFECE" height="5" style="stroke: #A80036; stroke-width: 1.5;" width="10" x="532.5" y="249"/><rect fill="#FEFECE" height="5" style="stroke: #A80036; stroke-width: 1.5;" width="10" x="532.5" y="270.2969"/><text fill="#000000" font-family="sans-serif" font-size="14" lengthAdjust="spacingAndGlyphs" textLength="83" x="547.5" y="266.9951">SyncService</text><!--entity IModule--><ellipse cx="493" cy="262" fill="#FEFECE" filter="url(#f1oxxxo0dk33wj)" rx="8" ry="8" style="stroke: #A80036; stroke-width: 2.0;"/><text fill="#000000" font-family="sans-serif" font-size="14" lengthAdjust="spacingAndGlyphs" textLength="54" x="466" y="291.9951">IModule</text><!--entity IMetaDataShareModule--><ellipse cx="252" cy="369" fill="#FEFECE" filter="url(#f1oxxxo0dk33wj)" rx="8" ry="8" style="stroke: #A80036; stroke-width: 2.0;"/><text fill="#000000" font-family="sans-serif" font-size="14" lengthAdjust="spacingAndGlyphs" textLength="160" x="172" y="398.9951">IMetaDataShareModule</text><!--entity IHeartbeatModule--><ellipse cx="631" cy="369" fill="#FEFECE" filter="url(#f1oxxxo0dk33wj)" rx="8" ry="8" style="stroke: #A80036; stroke-width: 2.0;"/><text fill="#000000" font-family="sans-serif" font-size="14" lengthAdjust="spacingAndGlyphs" textLength="122" x="570" y="398.9951">IHeartbeatModule</text><!--entity IFileManagerModule--><ellipse cx="451" cy="369" fill="#FEFECE" filter="url(#f1oxxxo0dk33wj)" rx="8" ry="8" style="stroke: #A80036; stroke-width: 2.0;"/><text fill="#000000" font-family="sans-serif" font-size="14" lengthAdjust="spacingAndGlyphs" textLength="137" x="382.5" y="398.9951">IFileManagerModule</text><!--entity IUpdaterModule--><ellipse cx="797" cy="369" fill="#FEFECE" filter="url(#f1oxxxo0dk33wj)" rx="8" ry="8" style="stroke: #A80036; stroke-width: 2.0;"/><text fill="#000000" font-family="sans-serif" font-size="14" lengthAdjust="spacingAndGlyphs" textLength="109" x="742.5" y="398.9951">IUpdaterModule</text><!--entity MetaDataShareModule--><rect fill="#FEFECE" filter="url(#f1oxxxo0dk33wj)" height="36.2969" style="stroke: #A80036; stroke-width: 1.5;" width="177" x="160.5" y="458"/><rect fill="#FEFECE" height="5" style="stroke: #A80036; stroke-width: 1.5;" width="10" x="155.5" y="463"/><rect fill="#FEFECE" height="5" style="stroke: #A80036; stroke-width: 1.5;" width="10" x="155.5" y="484.2969"/><text fill="#000000" font-family="sans-serif" font-size="14" lengthAdjust="spacingAndGlyphs" textLength="157" x="170.5" y="480.9951">MetaDataShareModule</text><!--entity HeartbeatModule--><rect fill="#FEFECE" filter="url(#f1oxxxo0dk33wj)" height="36.2969" style="stroke: #A80036; stroke-width: 1.5;" width="139" x="562.5" y="458"/><rect fill="#FEFECE" height="5" style="stroke: #A80036; stroke-width: 1.5;" width="10" x="557.5" y="463"/><rect fill="#FEFECE" height="5" style="stroke: #A80036; stroke-width: 1.5;" width="10" x="557.5" y="484.2969"/><text fill="#000000" font-family="sans-serif" font-size="14" lengthAdjust="spacingAndGlyphs" textLength="119" x="572.5" y="480.9951">HeartbeatModule</text><!--entity FileManagerModule--><rect fill="#FEFECE" filter="url(#f1oxxxo0dk33wj)" height="36.2969" style="stroke: #A80036; stroke-width: 1.5;" width="154" x="373" y="458"/><rect fill="#FEFECE" height="5" style="stroke: #A80036; stroke-width: 1.5;" width="10" x="368" y="463"/><rect fill="#FEFECE" height="5" style="stroke: #A80036; stroke-width: 1.5;" width="10" x="368" y="484.2969"/><text fill="#000000" font-family="sans-serif" font-size="14" lengthAdjust="spacingAndGlyphs" textLength="134" x="383" y="480.9951">FileManagerModule</text><!--entity UpdaterModule--><rect fill="#FEFECE" filter="url(#f1oxxxo0dk33wj)" height="36.2969" style="stroke: #A80036; stroke-width: 1.5;" width="126" x="737" y="458"/><rect fill="#FEFECE" height="5" style="stroke: #A80036; stroke-width: 1.5;" width="10" x="732" y="463"/><rect fill="#FEFECE" height="5" style="stroke: #A80036; stroke-width: 1.5;" width="10" x="732" y="484.2969"/><text fill="#000000" font-family="sans-serif" font-size="14" lengthAdjust="spacingAndGlyphs" textLength="106" x="747" y="480.9951">UpdaterModule</text><!--entity HeartbeatSignalModule--><rect fill="#FEFECE" filter="url(#f1oxxxo0dk33wj)" height="36.2969" style="stroke: #A80036; stroke-width: 1.5;" width="180" x="460" y="554"/><rect fill="#FEFECE" height="5" style="stroke: #A80036; stroke-width: 1.5;" width="10" x="455" y="559"/><rect fill="#FEFECE" height="5" style="stroke: #A80036; stroke-width: 1.5;" width="10" x="455" y="580.2969"/><text fill="#000000" font-family="sans-serif" font-size="14" lengthAdjust="spacingAndGlyphs" textLength="160" x="470" y="576.9951">HeartbeatSignalModule</text><!--entity HeartbeatAnswerModule--><rect fill="#FEFECE" filter="url(#f1oxxxo0dk33wj)" height="36.2969" style="stroke: #A80036; stroke-width: 1.5;" width="190" x="675" y="554"/><rect fill="#FEFECE" height="5" style="stroke: #A80036; stroke-width: 1.5;" width="10" x="670" y="559"/><rect fill="#FEFECE" height="5" style="stroke: #A80036; stroke-width: 1.5;" width="10" x="670" y="580.2969"/><text fill="#000000" font-family="sans-serif" font-size="14" lengthAdjust="spacingAndGlyphs" textLength="170" x="685" y="576.9951">HeartbeatAnswerModule</text><!--entity MetaDataRequestModule--><rect fill="#FEFECE" filter="url(#f1oxxxo0dk33wj)" height="36.2969" style="stroke: #A80036; stroke-width: 1.5;" width="196" x="6" y="554"/><rect fill="#FEFECE" height="5" style="stroke: #A80036; stroke-width: 1.5;" width="10" x="1" y="559"/><rect fill="#FEFECE" height="5" style="stroke: #A80036; stroke-width: 1.5;" width="10" x="1" y="580.2969"/><text fill="#000000" font-family="sans-serif" font-size="14" lengthAdjust="spacingAndGlyphs" textLength="176" x="16" y="576.9951">MetaDataRequestModule</text><!--entity MetaDataAnswerModule--><rect fill="#FEFECE" filter="url(#f1oxxxo0dk33wj)" height="36.2969" style="stroke: #A80036; stroke-width: 1.5;" width="188" x="237" y="554"/><rect fill="#FEFECE" height="5" style="stroke: #A80036; stroke-width: 1.5;" width="10" x="232" y="559"/><rect fill="#FEFECE" height="5" style="stroke: #A80036; stroke-width: 1.5;" width="10" x="232" y="580.2969"/><text fill="#000000" font-family="sans-serif" font-size="14" lengthAdjust="spacingAndGlyphs" textLength="168" x="247" y="576.9951">MetaDataAnswerModule</text><!--entity RabbitMQNode--><rect fill="#FEFECE" filter="url(#f1oxxxo0dk33wj)" height="36.2969" style="stroke: #A80036; stroke-width: 1.5;" width="198" x="341" y="650"/><rect fill="#FEFECE" height="5" style="stroke: #A80036; stroke-width: 1.5;" width="10" x="336" y="655"/><rect fill="#FEFECE" height="5" style="stroke: #A80036; stroke-width: 1.5;" width="10" x="336" y="676.2969"/><text fill="#000000" font-family="sans-serif" font-size="14" lengthAdjust="spacingAndGlyphs" textLength="178" x="351" y="672.9951">RabbitMQNode«abstract»</text><!--link ISyncService to ICheetahSyncService--><path d="M589,66.694 C589,92.744 589,129.494 589,145.733 " fill="none" id="ISyncService-ICheetahSyncService" style="stroke: #A80036; stroke-width: 1.0;"/><polygon fill="none" points="582,66.342,589,46.342,596,66.342,582,66.342" style="stroke: #A80036; stroke-width: 1.0;"/><!--link ICheetahSyncService to SyncService--><path d="M589,184.423 C589,203.445 589,227.849 589,243.933 " fill="none" id="ICheetahSyncService-SyncService" style="stroke: #A80036; stroke-width: 1.0;"/><polygon fill="none" points="582,184.239,589,164.239,596,184.239,582,184.239" style="stroke: #A80036; stroke-width: 1.0;"/><!--link IModule to SyncService--><!--link IMetaDataShareModule to IModule--><path d="M261.162,364.008 C294.655,349.416 411.301,298.595 465.246,275.092 " fill="none" id="IMetaDataShareModule-IModule" style="stroke: #A80036; stroke-width: 1.0;"/><polygon fill="none" points="462.715,268.559,483.847,266.988,468.307,281.394,462.715,268.559" style="stroke: #A80036; stroke-width: 1.0;"/><!--link IHeartbeatModule to IModule--><path d="M621.731,360.948 C600.766,344.995 549.107,305.69 517.977,282.004 " fill="none" id="IHeartbeatModule-IModule" style="stroke: #A80036; stroke-width: 1.0;"/><polygon fill="none" points="513.732,287.571,502.055,269.889,522.21,276.429,513.732,287.571" style="stroke: #A80036; stroke-width: 1.0;"/><!--link IFileManagerModule to IModule--><path d="M454.28,359.799 C460.218,344.954 472.991,313.022 482.246,289.884 " fill="none" id="IFileManagerModule-IModule" style="stroke: #A80036; stroke-width: 1.0;"/><polygon fill="none" points="475.777,287.209,489.704,271.239,488.776,292.408,475.777,287.209" style="stroke: #A80036; stroke-width: 1.0;"/><!--link IUpdaterModule to IModule--><path d="M787.682,364.599 C772.803,359.2 742.734,348.418 717,340 C630.01,311.543 603.241,318.053 520,280 C519.805,279.911 519.609,279.82 519.414,279.729 " fill="none" id="IUpdaterModule-IModule" style="stroke: #A80036; stroke-width: 1.0;"/><polygon fill="none" points="515.872,285.767,502.15,269.621,522.946,273.686,515.872,285.767" style="stroke: #A80036; stroke-width: 1.0;"/><!--link IMetaDataShareModule to MetaDataShareModule--><path d="M251.188,398.423 C250.644,417.445 249.947,441.849 249.488,457.933 " fill="none" id="IMetaDataShareModule-MetaDataShareModule" style="stroke: #A80036; stroke-width: 1.0;"/><polygon fill="none" points="244.196,398.031,251.765,378.239,258.19,398.431,244.196,398.031" style="stroke: #A80036; stroke-width: 1.0;"/><!--link IHeartbeatModule to HeartbeatModule--><path d="M631.271,398.423 C631.452,417.445 631.684,441.849 631.837,457.933 " fill="none" id="IHeartbeatModule-HeartbeatModule" style="stroke: #A80036; stroke-width: 1.0;"/><polygon fill="none" points="624.269,398.305,631.078,378.239,638.269,398.172,624.269,398.305" style="stroke: #A80036; stroke-width: 1.0;"/><!--link IFileManagerModule to FileManagerModule--><path d="M450.729,398.423 C450.548,417.445 450.316,441.849 450.163,457.933 " fill="none" id="IFileManagerModule-FileManagerModule" style="stroke: #A80036; stroke-width: 1.0;"/><polygon fill="none" points="443.731,398.172,450.922,378.239,457.731,398.305,443.731,398.172" style="stroke: #A80036; stroke-width: 1.0;"/><!--link IUpdaterModule to UpdaterModule--><path d="M797.812,398.423 C798.356,417.445 799.053,441.849 799.512,457.933 " fill="none" id="IUpdaterModule-UpdaterModule" style="stroke: #A80036; stroke-width: 1.0;"/><polygon fill="none" points="790.81,398.431,797.235,378.239,804.804,398.031,790.81,398.431" style="stroke: #A80036; stroke-width: 1.0;"/><!--link FileManagerModule to HeartbeatModule--><!--link SyncService to IMetaDataShareModule--><path d="M537.45,279.062 C462.451,302.429 326.456,344.801 273.717,361.233 " fill="none" id="SyncService-IMetaDataShareModule" style="stroke: #A80036; stroke-width: 1.0;"/><polygon fill="#A80036" points="261.17,365.143,268.0883,367.1771,272.6268,361.5733,265.7085,359.5392,261.17,365.143" style="stroke: #A80036; stroke-width: 1.0;"/><!--link SyncService to IHeartbeatModule--><path d="M595.935,280.339 C603.322,298.806 615.006,328.016 622.833,347.583 " fill="none" id="SyncService-IHeartbeatModule" style="stroke: #A80036; stroke-width: 1.0;"/><polygon fill="#A80036" points="627.734,359.835,629.22,352.7787,623.278,348.693,621.792,355.7493,627.734,359.835" style="stroke: #A80036; stroke-width: 1.0;"/><!--link SyncService to IFileManagerModule--><path d="M566.521,280.104 C539.884,300.371 495.933,333.812 470.617,353.074 " fill="none" id="SyncService-IFileManagerModule" style="stroke: #A80036; stroke-width: 1.0;"/><polygon fill="#A80036" points="460.133,361.051,467.3301,360.6013,469.6831,353.7849,462.486,354.2346,460.133,361.051" style="stroke: #A80036; stroke-width: 1.0;"/><!--link SyncService to IUpdaterModule--><path d="M622.882,280.104 C666.162,301.952 739.767,339.108 775.824,357.31 " fill="none" id="SyncService-IUpdaterModule" style="stroke: #A80036; stroke-width: 1.0;"/><polygon fill="#A80036" points="787.663,363.287,784.1093,357.0123,776.9505,357.8793,780.5042,364.154,787.663,363.287" style="stroke: #A80036; stroke-width: 1.0;"/><!--link HeartbeatModule to HeartbeatSignalModule--><path d="M616.96,494.241 C604.823,508.154 587.53,527.977 573.559,543.994 " fill="none" id="HeartbeatModule-HeartbeatSignalModule" style="stroke: #A80036; stroke-width: 1.0;"/><polygon fill="#A80036" points="564.945,553.868,571.9035,551.9763,572.8337,544.8254,565.8752,546.7171,564.945,553.868" style="stroke: #A80036; stroke-width: 1.0;"/><!--link HeartbeatModule to HeartbeatAnswerModule--><path d="M656.991,494.023 C678.448,508.638 709.649,529.891 733.833,546.365 " fill="none" id="HeartbeatModule-HeartbeatAnswerModule" style="stroke: #A80036; stroke-width: 1.0;"/><polygon fill="#A80036" points="744.729,553.786,742.022,547.1023,734.8112,547.0304,737.5183,553.7141,744.729,553.786" style="stroke: #A80036; stroke-width: 1.0;"/><!--link MetaDataShareModule to MetaDataRequestModule--><path d="M222.742,494.023 C200.094,508.704 167.115,530.084 141.657,546.588 " fill="none" id="MetaDataShareModule-MetaDataRequestModule" style="stroke: #A80036; stroke-width: 1.0;"/><polygon fill="#A80036" points="130.553,553.786,137.7635,553.8781,140.6218,547.2576,133.4113,547.1656,130.553,553.786" style="stroke: #A80036; stroke-width: 1.0;"/><!--link MetaDataShareModule to MetaDataAnswerModule--><path d="M264.04,494.241 C276.177,508.154 293.47,527.977 307.441,543.994 " fill="none" id="MetaDataShareModule-MetaDataAnswerModule" style="stroke: #A80036; stroke-width: 1.0;"/><polygon fill="#A80036" points="316.055,553.868,315.1248,546.7171,308.1663,544.8254,309.0965,551.9763,316.055,553.868" style="stroke: #A80036; stroke-width: 1.0;"/><!--link HeartbeatSignalModule to RabbitMQNode--><path d="M530.08,590.0227 C512.203,605.2995 485.839,627.8283 466.247,644.5704 " fill="none" id="HeartbeatSignalModule-RabbitMQNode" style="stroke: #A80036; stroke-width: 1.0;"/><polygon fill="#A80036" points="460.144,649.7863,468.1748,646.8698,464.277,642.3084,460.144,649.7863" style="stroke: #A80036; stroke-width: 1.0;"/><!--link HeartbeatAnswerModule to RabbitMQNode--><path d="M710.239,590.0227 C653.18,606.276 567.303,630.738 507.732,647.7066 " fill="none" id="HeartbeatAnswerModule-RabbitMQNode" style="stroke: #A80036; stroke-width: 1.0;"/><polygon fill="#A80036" points="499.873,649.9454,508.3889,650.6378,506.7443,644.8675,499.873,649.9454" style="stroke: #A80036; stroke-width: 1.0;"/><!--link MetaDataRequestModule to RabbitMQNode--><path d="M164.847,590.0227 C222.944,606.276 310.383,630.738 371.036,647.7066 " fill="none" id="MetaDataRequestModule-RabbitMQNode" style="stroke: #A80036; stroke-width: 1.0;"/><polygon fill="#A80036" points="379.039,649.9454,372.1433,644.9007,370.5265,650.6787,379.039,649.9454" style="stroke: #A80036; stroke-width: 1.0;"/><!--link MetaDataAnswerModule to RabbitMQNode--><path d="M350.739,590.0227 C368.377,605.2334 394.351,627.6333 413.739,644.3526 " fill="none" id="MetaDataAnswerModule-RabbitMQNode" style="stroke: #A80036; stroke-width: 1.0;"/><polygon fill="#A80036" points="420.039,649.7863,415.9406,642.2894,412.0217,646.8328,420.039,649.7863" style="stroke: #A80036; stroke-width: 1.0;"/><!--
@startuml
interface ISyncService
interface ICheetahSyncService

[SyncService]

ISyncService <|- - ICheetahSyncService
ICheetahSyncService <|- - SyncService

interface IModule
interface IMetaDataShareModule
interface IHeartbeatModule
interface IFileManagerModule
interface IUpdaterModule

[MetaDataShareModule]
[HeartbeatModule]
[FileManagerModule]
[UpdaterModule]

IModule -[hidden] SyncService
IMetaDataShareModule - -|> IModule
IHeartbeatModule - -|> IModule
IFileManagerModule - -|> IModule
IUpdaterModule - -|> IModule

IMetaDataShareModule <|- - MetaDataShareModule
IHeartbeatModule <|- - HeartbeatModule
IFileManagerModule <|- - FileManagerModule
IUpdaterModule <|- - UpdaterModule

FileManagerModule -[hidden] HeartbeatModule

SyncService - -* IMetaDataShareModule
SyncService - -* IHeartbeatModule
SyncService - -* IFileManagerModule
SyncService - -* IUpdaterModule

[HeartbeatSignalModule]
[HeartbeatAnswerModule]
[MetaDataRequestModule]
[MetaDataAnswerModule]

HeartbeatModule - -* HeartbeatSignalModule
HeartbeatModule - -* HeartbeatAnswerModule
MetaDataShareModule - -* MetaDataRequestModule
MetaDataShareModule - -* MetaDataAnswerModule

[RabbitMQNode<<abstract>>] as RabbitMQNode

HeartbeatSignalModule - ->> RabbitMQNode
HeartbeatAnswerModule - ->> RabbitMQNode
MetaDataRequestModule - ->> RabbitMQNode
MetaDataAnswerModule - ->> RabbitMQNode
@enduml

PlantUML version 1.2019.07(Mon Jun 24 19:59:20 UTC 2019)
(GPL source distribution)
Java Runtime: Java(TM) SE Runtime Environment
JVM: Java HotSpot(TM) 64-Bit Server VM
Java Version: 1.7.0_25-b15
Operating System: Linux
Default Encoding: UTF-8
Language: en
Country: US
--></g></svg>